<svg width="91" height="65" viewBox="0 0 91 65" fill="none" xmlns="http://www.w3.org/2000/svg">
<path d="M22.5411 31.5695C20.5077 31.1743 13.7475 30.2778 9.24301 34.6593C9.24301 34.6593 11.2283 36.4667 15.0091 36.9447C11.3648 37.9505 7.58841 39.6494 5.71949 42.5271C5.71949 42.5271 9.55815 44.8529 16.3607 43.0791C13.7919 45.0815 13.1784 47.3086 13.1784 47.3086C19.1986 49.2849 24.348 45.4546 25.772 44.2469L22.5411 31.5695Z" fill="#FAC235"/>
<path d="M22.8512 32.786C20.3873 32.4478 17.8853 33.0329 15.827 34.4287C16.0738 35.0151 16.4802 35.5204 17 35.8873C17.5197 36.2542 18.132 36.4678 18.7671 36.504L18.77 36.5048C18.929 36.5148 19.0916 36.5227 19.2658 36.5216L21.2915 36.6009C19.9697 36.801 18.682 37.1833 17.4651 37.7368C16.1384 38.3235 15.0014 39.2681 14.1816 40.4649C14.1816 40.4649 16.8549 42.3785 22.287 40.6391L20.5889 41.5467C20.5318 41.5769 20.4747 41.607 20.4169 41.6399L20.406 41.6461C19.4933 42.1508 18.7145 42.8663 18.1344 43.733C17.8856 44.0936 17.6833 44.4841 17.5321 44.8953C20.3098 45.2806 23.1334 44.6541 25.4874 43.1302L22.8512 32.786Z" fill="#F9A134"/>
<path d="M26.9446 47.2112C25.3361 45.4576 24.0519 43.4321 23.1519 41.2293C21.5782 37.3452 21.2647 32.9662 22.0899 28.1615L23.9977 28.6207L25.3334 28.9426L27.1141 29.3716L30.7768 43.744L29.3505 45.0352L28.3552 45.9353L26.9446 47.2112Z" fill="#FF4746"/>
<path d="M28.3553 45.9355C26.3924 43.5865 25.0035 40.8127 24.2988 37.8338C23.6227 34.8087 23.5205 31.6836 23.9978 28.6209L25.3335 28.9428L27.1142 29.3718L30.7769 43.7442L29.3506 45.0354L28.3553 45.9355Z" fill="#F7FAFB"/>
<path d="M29.3505 45.0353C27.436 42.5799 26.1321 39.7049 25.5462 36.647C25.0753 34.1055 25.0035 31.5062 25.3335 28.9427L27.1141 29.3717L30.7769 43.7441L29.3505 45.0353Z" fill="#FF4746"/>
<path opacity="0.2" d="M23.1519 41.2293C21.5782 37.3452 21.2647 32.9662 22.0899 28.1615L23.9977 28.6207L25.3334 28.9426L27.1141 29.3716L28.5636 35.0596C28.5562 35.0745 28.549 35.0904 28.5408 35.1055C27.4659 35.4544 26.4547 35.9749 25.5462 36.6469C25.084 36.9907 24.6651 37.3891 24.2987 37.8336C23.5007 38.7789 23.091 39.9917 23.1523 41.2273L23.1519 41.2293Z" fill="black"/>
<path d="M64.7037 19.7234L27.0975 29.3063L23.2381 14.1621C23.3597 14.1432 23.4809 14.1261 23.6012 14.113C32.0838 13.1862 34.0893 19.4186 39.0183 21.4114C39.9865 21.8025 41.8198 21.9334 44.0802 21.901C51.6213 21.7928 63.9151 19.8671 64.6677 19.7307C64.6913 19.7256 64.7037 19.7234 64.7037 19.7234Z" fill="#FF4746"/>
<path opacity="0.2" d="M64.7037 19.7235L27.0976 29.3064L26.3611 26.4168L44.0803 21.9011C51.6214 21.793 63.9151 19.8672 64.6677 19.7308C64.6913 19.7257 64.7037 19.7235 64.7037 19.7235Z" fill="black"/>
<path opacity="0.2" d="M23.491 15.1548C23.491 15.1548 29.6373 14.2275 33.1604 19.0892C33.1604 19.0892 28.8769 15.2098 23.8781 16.674L23.491 15.1548Z" fill="black"/>
<path d="M72.1783 33.2016L30.7787 43.7522C29.5003 41.6854 28.5303 39.4432 27.8993 37.0963C27.758 36.5672 27.6349 36.0327 27.5299 35.493C27.1378 33.4534 26.9919 31.374 27.0955 29.2996L68.4951 18.749L72.1783 33.2016Z" fill="#F7FAFB"/>
<path d="M70.7776 33.5591L69.3943 33.9116C68.4046 32.4147 66.865 29.7888 66.1641 27.0387C65.4505 24.2384 65.5754 21.1902 65.7412 19.4505L67.1306 19.0964C67.0751 19.5887 67.0134 20.2662 66.9812 21.0562C66.8774 22.9533 67.04 24.8555 67.4642 26.7074C68.1761 29.5008 69.8791 32.2429 70.7776 33.5591Z" fill="#FF4746"/>
<path d="M72.1786 33.2014C70.598 31.1786 69.4546 28.8497 68.8206 26.3621C68.1866 23.8745 68.076 21.2823 68.4957 18.7498L68.4955 18.7489C68.4955 18.7489 77.7413 18.6734 83.8376 21.5483C84.0024 21.6268 84.1479 21.7405 84.2638 21.8815C84.3797 22.0225 84.4631 22.1873 84.5082 22.3641C84.5533 22.541 84.5589 22.7256 84.5246 22.9048C84.4903 23.0841 84.417 23.2536 84.3098 23.4013C80.3327 28.8417 72.1786 33.2014 72.1786 33.2014Z" fill="#FF4746"/>
<path opacity="0.2" d="M72.1785 33.2013C70.5979 31.1785 69.4544 28.8496 68.8205 26.362C68.1865 23.8744 68.0758 21.2823 68.4955 18.7497L68.4953 18.7488C68.4953 18.7488 77.7412 18.6733 83.8375 21.5482C84.03 21.6389 84.1959 21.7779 84.3189 21.9516C84.442 22.1253 84.518 22.3279 84.5396 22.5397C83.2589 22.1359 79.2593 21.0554 75.1397 21.8007C70.1405 22.7055 69.6988 29.5883 72.1785 33.2013Z" fill="black"/>
<path d="M68.385 34.1687L30.7793 43.7533L34.6388 58.8975C34.7546 58.8559 34.8692 58.8129 34.9811 58.7668C42.8726 55.5207 41.6506 49.0886 45.0246 44.9798C45.6876 44.1731 47.2346 43.1807 49.2349 42.1273C55.9079 38.613 67.6238 34.4199 68.3499 34.1795C68.3731 34.1727 68.385 34.1687 68.385 34.1687Z" fill="#FF4746"/>
<path opacity="0.2" d="M68.385 34.1687L30.7793 43.7533L31.5157 46.6429L49.2349 42.1273C55.9079 38.613 67.6238 34.4199 68.3499 34.1795C68.3731 34.1727 68.385 34.1687 68.385 34.1687Z" fill="black"/>
<path d="M52.4713 36.1102C55.4559 36.0612 57.8358 33.6019 57.7868 30.6172C57.7378 27.6326 55.2786 25.2527 52.2939 25.3017C49.3092 25.3507 46.9294 27.8099 46.9783 30.7946C47.0273 33.7793 49.4866 36.1592 52.4713 36.1102Z" fill="#FF4746"/>
<path d="M53.4381 34.8482C53.4201 34.8528 53.4013 34.8576 53.3831 34.8613C52.3001 35.1211 51.1585 34.9482 50.2008 34.3796C49.2432 33.8109 48.5451 32.8913 48.2548 31.816C48.2494 31.7982 48.2446 31.7794 48.24 31.7615C48.0308 30.9418 48.0693 30.0784 48.3508 29.2807C48.6323 28.4829 49.1441 27.7865 49.8214 27.2797C50.4987 26.7728 51.3111 26.4782 52.1559 26.4331C53.0007 26.3881 53.8398 26.5946 54.5672 27.0265C55.2946 27.4585 55.8776 28.0964 56.2423 28.8597C56.6071 29.623 56.7372 30.4774 56.6164 31.3147C56.4955 32.152 56.129 32.9346 55.5633 33.5636C54.9975 34.1925 54.258 34.6396 53.4381 34.8482V34.8482Z" fill="#00D1D1"/>
<path d="M55.989 32.9968L48.6449 28.6358C48.9282 28.1236 49.3135 27.675 49.7769 27.3176L56.6047 31.3719C56.5129 31.95 56.3033 32.5031 55.989 32.9968V32.9968Z" fill="#00F4F3"/>
<path d="M53.4382 34.8483C53.4202 34.8528 53.4014 34.8576 53.3832 34.8614L48.2549 31.8161C48.2495 31.7983 48.2447 31.7795 48.2401 31.7615C48.143 31.3815 48.0987 30.99 48.1085 30.5979L54.5229 34.4068C54.1834 34.6032 53.8184 34.7517 53.4382 34.8483Z" fill="#00F4F3"/>
<path opacity="0.1" d="M54.523 34.4069C55.4165 33.89 56.0929 33.0672 56.4271 32.0904C56.7614 31.1137 56.7309 30.049 56.3413 29.093C55.9518 28.137 55.2294 27.3543 54.3078 26.8893C53.3861 26.4244 52.3273 26.3086 51.3269 26.5635C51.2126 26.5926 51.1012 26.626 50.9925 26.6637C51.98 26.4992 52.9939 26.6863 53.8576 27.1925C54.7213 27.6987 55.38 28.4919 55.719 29.4338C56.058 30.3758 56.0557 31.4068 55.7126 32.3473C55.3696 33.2878 54.7074 34.0781 53.8415 34.5805C53.6036 34.7182 53.3528 34.832 53.0926 34.9205C53.1894 34.905 53.2866 34.8844 53.3833 34.8614C53.4014 34.8577 53.4202 34.8529 53.4382 34.8483C53.8184 34.7517 54.1834 34.6032 54.523 34.4069V34.4069Z" fill="black"/>
</svg>
